<mxfile host="65bd71144e">
    <diagram id="OOKPsD-LrbufebXvpjXt" name="Page-1">
        <mxGraphModel dx="1082" dy="1849" grid="1" gridSize="10" guides="1" tooltips="1" connect="1" arrows="1" fold="1" page="1" pageScale="1" pageWidth="850" pageHeight="1100" math="0" shadow="0">
            <root>
                <mxCell id="0"/>
                <mxCell id="1" parent="0"/>
                <mxCell id="15" value="" style="edgeStyle=none;html=1;" parent="1" source="16" edge="1">
                    <mxGeometry relative="1" as="geometry">
                        <mxPoint x="385.30999999999995" y="80" as="targetPoint"/>
                    </mxGeometry>
                </mxCell>
                <mxCell id="16" value="Start" style="strokeWidth=2;html=1;shape=mxgraph.flowchart.terminator;whiteSpace=wrap;" parent="1" vertex="1">
                    <mxGeometry x="335.31" y="-30" width="100" height="60" as="geometry"/>
                </mxCell>
                <mxCell id="17" value="" style="edgeStyle=none;html=1;" parent="1" target="20" edge="1">
                    <mxGeometry relative="1" as="geometry">
                        <mxPoint x="385.30999999999995" y="140" as="sourcePoint"/>
                    </mxGeometry>
                </mxCell>
                <mxCell id="19" value="" style="edgeStyle=none;html=1;fontFamily=Helvetica;" parent="1" source="20" edge="1">
                    <mxGeometry relative="1" as="geometry">
                        <mxPoint x="385.30999999999995" y="260" as="targetPoint"/>
                    </mxGeometry>
                </mxCell>
                <mxCell id="20" value="median = 0" style="rounded=1;whiteSpace=wrap;html=1;absoluteArcSize=1;arcSize=14;strokeWidth=2;" parent="1" vertex="1">
                    <mxGeometry x="350.31" y="170" width="70" height="60" as="geometry"/>
                </mxCell>
                <mxCell id="52" value="" style="edgeStyle=none;html=1;fontFamily=Helvetica;" parent="1" edge="1">
                    <mxGeometry relative="1" as="geometry">
                        <mxPoint x="385.306875" y="380" as="sourcePoint"/>
                        <mxPoint x="385.3078125000002" y="410" as="targetPoint"/>
                    </mxGeometry>
                </mxCell>
                <mxCell id="64" style="edgeStyle=none;rounded=0;html=1;entryX=0.5;entryY=0;entryDx=0;entryDy=0;fontFamily=Helvetica;exitX=1;exitY=0.5;exitDx=0;exitDy=0;exitPerimeter=0;" parent="1" edge="1">
                    <mxGeometry relative="1" as="geometry">
                        <Array as="points">
                            <mxPoint x="735" y="320"/>
                        </Array>
                        <mxPoint x="462.6500000000001" y="320" as="sourcePoint"/>
                        <mxPoint x="735" y="420" as="targetPoint"/>
                    </mxGeometry>
                </mxCell>
                <mxCell id="56" style="edgeStyle=none;html=1;fontFamily=Helvetica;" parent="1" edge="1">
                    <mxGeometry relative="1" as="geometry">
                        <mxPoint x="385.30999999999995" y="580" as="targetPoint"/>
                        <mxPoint x="385.30999999999995" y="550" as="sourcePoint"/>
                    </mxGeometry>
                </mxCell>
                <mxCell id="62" value="" style="edgeStyle=none;rounded=0;html=1;fontFamily=Helvetica;" parent="1" edge="1">
                    <mxGeometry relative="1" as="geometry">
                        <mxPoint x="385.3066666666666" y="640" as="sourcePoint"/>
                        <mxPoint x="385.3083333333334" y="670" as="targetPoint"/>
                    </mxGeometry>
                </mxCell>
                <mxCell id="60" value="Yes" style="text;html=1;resizable=0;autosize=1;align=center;verticalAlign=middle;points=[];fillColor=none;strokeColor=none;rounded=0;fontFamily=Helvetica;" parent="1" vertex="1">
                    <mxGeometry x="380.31" y="380" width="40" height="20" as="geometry"/>
                </mxCell>
                <mxCell id="61" value="No" style="text;html=1;resizable=0;autosize=1;align=center;verticalAlign=middle;points=[];fillColor=none;strokeColor=none;rounded=0;fontFamily=Helvetica;" parent="1" vertex="1">
                    <mxGeometry x="570" y="300" width="30" height="20" as="geometry"/>
                </mxCell>
                <mxCell id="65" style="edgeStyle=none;rounded=0;html=1;entryX=0.5;entryY=0;entryDx=0;entryDy=0;entryPerimeter=0;fontFamily=Helvetica;" parent="1" edge="1">
                    <mxGeometry relative="1" as="geometry">
                        <Array as="points">
                            <mxPoint x="735" y="650"/>
                            <mxPoint x="385" y="650"/>
                        </Array>
                        <mxPoint x="735" y="540" as="sourcePoint"/>
                        <mxPoint x="385.30999999999995" y="670" as="targetPoint"/>
                    </mxGeometry>
                </mxCell>
                <mxCell id="66" value="&lt;pre style=&quot;color: rgb(255 , 255 , 255) ; overflow-wrap: break-word&quot;&gt;&lt;pre style=&quot;overflow-wrap: break-word&quot;&gt;&lt;font face=&quot;Helvetica&quot;&gt;if (arraySize % 2 === 0)&lt;/font&gt;&lt;/pre&gt;&lt;/pre&gt;" style="strokeWidth=2;html=1;shape=mxgraph.flowchart.decision;whiteSpace=wrap;fontFamily=Helvetica;" vertex="1" parent="1">
                    <mxGeometry x="307.96" y="260" width="154.69" height="120" as="geometry"/>
                </mxCell>
                <mxCell id="67" value="&lt;pre style=&quot;color: rgb(255 , 255 , 255) ; overflow-wrap: break-word&quot;&gt;&lt;pre style=&quot;overflow-wrap: break-word&quot;&gt;&lt;font face=&quot;Helvetica&quot;&gt;median = (sortedArray[arraySize / 2] &lt;/font&gt;&lt;/pre&gt;&lt;pre style=&quot;overflow-wrap: break-word&quot;&gt;&lt;font face=&quot;Helvetica&quot;&gt;+ sortedArray[arraySize / 2 - 1]) / 2&lt;/font&gt;&lt;/pre&gt;&lt;/pre&gt;" style="rounded=1;whiteSpace=wrap;html=1;absoluteArcSize=1;arcSize=14;strokeWidth=2;fontFamily=Helvetica;" vertex="1" parent="1">
                    <mxGeometry x="280.46000000000004" y="410" width="209.69" height="140" as="geometry"/>
                </mxCell>
                <mxCell id="68" value="&lt;pre style=&quot;color: rgb(255 , 255 , 255) ; overflow-wrap: break-word&quot;&gt;&lt;pre style=&quot;overflow-wrap: break-word&quot;&gt;&lt;pre style=&quot;overflow-wrap: break-word&quot;&gt;&lt;font face=&quot;Helvetica&quot;&gt;median = sortedArray[(arraySize - 1) / 2]&lt;/font&gt;&lt;/pre&gt;&lt;/pre&gt;&lt;/pre&gt;" style="rounded=1;whiteSpace=wrap;html=1;absoluteArcSize=1;arcSize=14;strokeWidth=2;fontFamily=Helvetica;" vertex="1" parent="1">
                    <mxGeometry x="620" y="420" width="230" height="120" as="geometry"/>
                </mxCell>
                <mxCell id="69" value="return median" style="shape=parallelogram;html=1;strokeWidth=2;perimeter=parallelogramPerimeter;whiteSpace=wrap;rounded=1;arcSize=12;size=0.23;" vertex="1" parent="1">
                    <mxGeometry x="332.96" y="580" width="104.69" height="60" as="geometry"/>
                </mxCell>
                <mxCell id="70" value="Stop" style="strokeWidth=2;html=1;shape=mxgraph.flowchart.terminator;whiteSpace=wrap;" vertex="1" parent="1">
                    <mxGeometry x="335.31" y="670" width="100" height="60" as="geometry"/>
                </mxCell>
                <mxCell id="71" value="get listArray" style="shape=parallelogram;html=1;strokeWidth=2;perimeter=parallelogramPerimeter;whiteSpace=wrap;rounded=1;arcSize=12;size=0.23;" vertex="1" parent="1">
                    <mxGeometry x="335.31" y="80" width="100" height="60" as="geometry"/>
                </mxCell>
            </root>
        </mxGraphModel>
    </diagram>
</mxfile>